<svg id="Layer_1" data-name="Layer 1" xmlns="http://www.w3.org/2000/svg" viewBox="0 0 1200 1200"><defs><style>.cls-1{fill:#00517c;}.cls-2{fill:#68c4d1;}.cls-3{fill:#ffd156;}.cls-4{fill:#ffeea9;}.cls-5{fill:#fff;}</style></defs><path class="cls-1" d="M764.18,291.92A147.68,147.68,0,0,1,910.4,439.52h-.08v.08H764.18Z"/><path class="cls-1" d="M762.59,147a145.92,145.92,0,0,1-102-42.86A145.93,145.93,0,0,1,617.67.67h.08V.58H762.59Z"/><rect class="cls-2" x="1056.57" y="0.67" width="146.25" height="146.25"/><rect class="cls-1" x="1056.58" y="146.92" width="146.24" height="146.24"/><path class="cls-3" d="M908.77,878.05a147.71,147.71,0,0,0,147.6,146.22v-.09h.09V878.05Z"/><rect class="cls-2" x="910.25" y="585.7" width="146.25" height="146.25"/><rect class="cls-3" x="470.42" y="0.77" width="146.73" height="146.73"/><rect class="cls-1" x="1056.57" y="878.07" width="146.25" height="146.25"/><rect class="cls-1" x="1056.57" y="1024.37" width="146.25" height="146.25"/><path class="cls-4" d="M618.29,585.85h0a73.12,73.12,0,0,1-73.12-73.12h0a73.12,73.12,0,0,1,73.12-73.12h0a73.12,73.12,0,0,1,73.13,73.12h0A73.13,73.13,0,0,1,618.29,585.85Z"/><rect class="cls-2" x="1056.58" y="439.47" width="146.24" height="146.24"/><path class="cls-2" d="M1056.57,732h0V585.72h146.24A146.24,146.24,0,0,1,1056.57,732Z"/><rect class="cls-2" x="910.26" y="1024.39" width="146.25" height="146.25" transform="translate(2080.9 114.13) rotate(90)"/><path class="cls-2" d="M764,1024.39H910.26a0,0,0,0,1,0,0v83.74a62.5,62.5,0,0,1-62.5,62.5H764a0,0,0,0,1,0,0V1024.39A0,0,0,0,1,764,1024.39Z" transform="translate(1934.65 260.38) rotate(90)"/><rect class="cls-3" x="1130.01" y="293.23" width="72.81" height="146.25"/><rect class="cls-2" x="1056.57" y="293.23" width="73.44" height="146.25"/><rect class="cls-4" x="910.3" y="439.45" width="146.25" height="73.44"/><polygon class="cls-3" points="908.77 74.27 908.77 147.08 762.52 147.08 762.52 147.04 835.98 147.04 835.98 74.27 908.77 74.27"/><rect class="cls-3" x="762.52" y="74.27" width="73.46" height="72.77"/><rect class="cls-2" x="762.53" y="0.83" width="73.46" height="73.44"/><rect class="cls-1" x="762.52" y="73.6" width="73.46" height="73.44"/><rect class="cls-3" x="983.75" y="512.76" width="72.95" height="72.92"/><rect class="cls-3" x="691.24" y="366.69" width="72.95" height="72.92"/><polygon class="cls-3" points="837.44 219.16 764.49 292.08 764.49 219.16 837.44 219.16"/><polygon class="cls-3" points="909.63 878.37 764.14 1023.82 764.14 878.37 909.63 878.37"/><polygon class="cls-3" points="1202.94 878.1 1056.52 1024.47 1056.52 878.1 1202.94 878.1"/><polygon class="cls-1" points="1056.76 1024.28 910.35 1170.64 910.35 1024.28 1056.76 1024.28"/><polygon class="cls-1" points="1202.87 0.66 1056.57 146.92 1056.57 0.66 1202.87 0.66"/><polygon class="cls-1" points="983.4 585.69 910.45 658.61 910.45 585.69 983.4 585.69"/><rect class="cls-4" x="691.24" y="805.51" width="72.95" height="72.92"/><rect class="cls-4" x="397.62" y="0.72" width="72.95" height="72.92"/><rect class="cls-4" x="178.73" y="148.24" width="72.95" height="72.92"/><rect class="cls-2" x="618.51" y="513.01" width="72.95" height="72.92"/><rect class="cls-2" x="617.52" y="293.25" width="72.95" height="72.92"/><path class="cls-2" d="M836.86,585.92h0a72.93,72.93,0,0,1-72.93,72.92h0V585.92Z"/><path class="cls-3" d="M837.05,805.49h0a72.93,72.93,0,0,1-72.93,72.93h0V805.49Z"/><rect class="cls-4" x="983.56" y="366.48" width="72.95" height="72.92"/><path class="cls-3" d="M908.89,146.75A147.68,147.68,0,0,0,1056.49,293v-.08h.08V146.75Z"/><path class="cls-3" d="M470.41,147.37A147,147,0,0,0,617.23,293v-.08h.08V147.37Z"/><path class="cls-1" d="M908.89,146.92A147.69,147.69,0,0,1,1056.49.7V.79h.08V146.92Z"/><path class="cls-2" d="M178.15,147.68a147.25,147.25,0,0,0,103-43.24A147.24,147.24,0,0,0,324.37.08h-.08V0H178.15Z"/><path class="cls-4" d="M178.32,147.68A147.2,147.2,0,0,1,75.37,104.44,147.21,147.21,0,0,1,32.1.08h.09V0H178.32Z"/><path class="cls-1" d="M1056.46,732.08V878.23H908.76a147.56,147.56,0,0,1,1-15.42c.17-1.64.38-3.25.64-4.87a135.14,135.14,0,0,1,2.76-14c.39-1.64.84-3.28,1.31-4.89a142.16,142.16,0,0,1,4.77-14c.66-1.64,1.33-3.26,2-4.87a137.94,137.94,0,0,1,7.09-14c.93-1.64,1.91-3.28,2.92-4.87a138.82,138.82,0,0,1,10-14c1.31-1.66,2.67-3.27,4.07-4.86,2.15-2.46,4.4-4.87,6.72-7.19s4.79-4.63,7.3-6.81c1.92-1.68,3.86-3.3,5.85-4.86a146.09,146.09,0,0,1,21.41-14c3.23-1.75,6.5-3.37,9.87-4.87a147.29,147.29,0,0,1,59.93-12.7v.07Z"/><path class="cls-4" d="M1056.46,857.94v4.87H909.72c.17-1.64.38-3.25.64-4.87Z"/><path class="cls-4" d="M1056.46,839.06V844H913.12c.39-1.64.84-3.28,1.31-4.89Z"/><path class="cls-4" d="M1056.46,820.2v4.87H919.2c.66-1.64,1.33-3.26,2-4.87Z"/><path class="cls-4" d="M1056.46,801.34v4.87H928.33c.93-1.64,1.91-3.28,2.92-4.87Z"/><path class="cls-4" d="M1056.46,782.46v4.86H941.22c1.31-1.66,2.67-3.27,4.07-4.86Z"/><path class="cls-4" d="M1056.46,763.6v4.86H959.31c1.92-1.68,3.86-3.3,5.85-4.86Z"/><path class="cls-4" d="M1056.46,744.71v4.87H986.57c3.23-1.75,6.5-3.37,9.87-4.87Z"/><rect class="cls-4" x="1129.7" y="154.99" width="73.12" height="5.43"/><rect class="cls-4" x="1129.7" y="170.2" width="73.12" height="5.43"/><rect class="cls-4" x="1129.7" y="185.41" width="73.12" height="5.43"/><rect class="cls-4" x="571.48" y="405.78" width="158.26" height="5.43" transform="translate(1059.11 -242.13) rotate(90)"/><rect class="cls-4" x="556.27" y="405.78" width="158.26" height="5.43" transform="translate(1043.89 -226.91) rotate(90)"/><rect class="cls-4" x="541.05" y="405.78" width="158.26" height="5.43" transform="translate(1028.68 -211.69) rotate(90)"/><rect class="cls-4" x="1129.7" y="200.62" width="73.12" height="5.43"/><rect class="cls-4" x="1129.7" y="215.85" width="73.12" height="5.43"/><rect class="cls-4" x="1129.7" y="231.06" width="73.12" height="5.43"/><rect class="cls-4" x="1129.7" y="246.27" width="73.12" height="5.43"/><rect class="cls-4" x="1129.7" y="261.5" width="73.12" height="5.43"/><rect class="cls-4" x="1129.7" y="276.71" width="73.12" height="5.43"/><path class="cls-1" d="M1202.82,439.61V585.72h-4.4a73.13,73.13,0,0,1,4.4-146.11Z"/><rect class="cls-1" x="764.18" y="439.61" width="146.25" height="146.25"/><path class="cls-4" d="M1202.81,878.06H1056.57V731.81h0a146.24,146.24,0,0,1,146.24,146.25Z"/><path class="cls-1" d="M399.39,99.1a4.94,4.94,0,1,1-4.94-4.94A4.94,4.94,0,0,1,399.39,99.1Z"/><path class="cls-1" d="M399.39,124.91a4.94,4.94,0,1,1-4.94-4.94A4.94,4.94,0,0,1,399.39,124.91Z"/><path class="cls-1" d="M424.53,99.1a4.94,4.94,0,1,1-4.94-4.94A4.94,4.94,0,0,1,424.53,99.1Z"/><path class="cls-1" d="M424.53,124.91a4.94,4.94,0,1,1-4.94-4.94A4.94,4.94,0,0,1,424.53,124.91Z"/><path class="cls-1" d="M348.51,99.1a4.94,4.94,0,1,1-4.94-4.94A4.94,4.94,0,0,1,348.51,99.1Z"/><circle class="cls-1" cx="343.57" cy="124.91" r="4.94"/><path class="cls-1" d="M373.65,99.1a4.94,4.94,0,1,1-4.94-4.94A4.94,4.94,0,0,1,373.65,99.1Z"/><circle class="cls-1" cx="368.71" cy="124.91" r="4.94"/><path class="cls-1" d="M501.06,99.1a4.94,4.94,0,1,1-4.94-4.94A4.94,4.94,0,0,1,501.06,99.1Z"/><path class="cls-1" d="M501.06,124.91a4.94,4.94,0,1,1-4.94-4.94A4.94,4.94,0,0,1,501.06,124.91Z"/><path class="cls-1" d="M526.2,99.1a4.94,4.94,0,1,1-4.94-4.94A4.94,4.94,0,0,1,526.2,99.1Z"/><path class="cls-1" d="M526.2,124.91a4.94,4.94,0,1,1-4.94-4.94A4.94,4.94,0,0,1,526.2,124.91Z"/><path class="cls-1" d="M450.18,99.1a4.94,4.94,0,1,1-4.94-4.94A4.94,4.94,0,0,1,450.18,99.1Z"/><circle class="cls-1" cx="445.24" cy="124.91" r="4.94"/><path class="cls-1" d="M475.32,99.1a4.94,4.94,0,1,1-4.94-4.94A4.94,4.94,0,0,1,475.32,99.1Z"/><path class="cls-1" d="M475.32,124.91a4.94,4.94,0,1,1-4.94-4.94A4.94,4.94,0,0,1,475.32,124.91Z"/><path class="cls-1" d="M937.25,388.47a4.94,4.94,0,1,1-4.94-4.94A4.94,4.94,0,0,1,937.25,388.47Z"/><path class="cls-1" d="M937.25,414.28a4.94,4.94,0,1,1-4.94-4.94A4.94,4.94,0,0,1,937.25,414.28Z"/><path class="cls-1" d="M962.39,388.47a4.94,4.94,0,1,1-4.94-4.94A4.94,4.94,0,0,1,962.39,388.47Z"/><path class="cls-1" d="M962.39,414.28a4.94,4.94,0,1,1-4.94-4.94A4.94,4.94,0,0,1,962.39,414.28Z"/><path class="cls-1" d="M657.2,893.22a4.94,4.94,0,1,1-4.94-4.94A4.94,4.94,0,0,1,657.2,893.22Z"/><path class="cls-1" d="M657.2,919a4.94,4.94,0,1,1-4.94-4.94A4.94,4.94,0,0,1,657.2,919Z"/><path class="cls-1" d="M682.34,893.22a4.94,4.94,0,1,1-4.94-4.94A4.94,4.94,0,0,1,682.34,893.22Z"/><path class="cls-1" d="M682.34,919a4.94,4.94,0,1,1-4.94-4.94A4.94,4.94,0,0,1,682.34,919Z"/><path class="cls-5" d="M1114,1063.6a13,13,0,1,1-13-13A13,13,0,0,1,1114,1063.6Z"/><path class="cls-5" d="M1114,1131.49a13,13,0,1,1-13-13A13,13,0,0,1,1114,1131.49Z"/><path class="cls-5" d="M1180.12,1063.6a13,13,0,1,1-13-13A13,13,0,0,1,1180.12,1063.6Z"/><path class="cls-5" d="M1180.12,1131.49a13,13,0,1,1-13-13A13,13,0,0,1,1180.12,1131.49Z"/><path class="cls-4" d="M670.9,184.73a13,13,0,1,1-13-13A13,13,0,0,1,670.9,184.73Z"/><path class="cls-4" d="M670.9,252.62a13,13,0,1,1-13-13A13,13,0,0,1,670.9,252.62Z"/><path class="cls-4" d="M737,184.73a13,13,0,1,1-13-13A13,13,0,0,1,737,184.73Z"/><path class="cls-4" d="M737,252.62a13,13,0,1,1-13-13A13,13,0,0,1,737,252.62Z"/></svg>