<svg id="Layer_1" data-name="Layer 1" xmlns="http://www.w3.org/2000/svg" viewBox="0 0 1200 1200"><defs><style>.cls-1{fill:#00517c;}.cls-2{fill:#68c4d1;}.cls-3{fill:#ffd156;}.cls-4{fill:#ffeea9;}.cls-5{fill:#fff;}</style></defs><path class="cls-1" d="M1.66,292.18a147.18,147.18,0,0,1,103,43.25,147.22,147.22,0,0,1,43.26,104.35h-.08v.09H1.66Z"/><rect class="cls-2" x="294.05" y="0.93" width="146.25" height="146.25"/><rect class="cls-1" x="294.06" y="147.18" width="146.24" height="146.24"/><path class="cls-3" d="M146.25,878.31a147.69,147.69,0,0,0,147.61,146.22v-.08h.08V878.31Z"/><rect class="cls-2" x="147.73" y="585.97" width="146.25" height="146.25"/><rect class="cls-1" x="294.05" y="878.33" width="146.25" height="146.25"/><rect class="cls-1" x="294.05" y="1024.63" width="146.25" height="146.25"/><rect class="cls-2" x="294.06" y="439.74" width="146.24" height="146.24"/><path class="cls-2" d="M294.05,732.23h0V586H440.29A146.24,146.24,0,0,1,294.05,732.23Z"/><rect class="cls-2" x="147.74" y="1024.65" width="146.25" height="146.25" transform="translate(1318.64 876.91) rotate(90)"/><path class="cls-2" d="M1.49,1024.65H147.74a0,0,0,0,1,0,0v83.74a62.5,62.5,0,0,1-62.5,62.5H1.49a0,0,0,0,1,0,0V1024.65A0,0,0,0,1,1.49,1024.65Z" transform="translate(1172.39 1023.16) rotate(90)"/><rect class="cls-3" x="367.49" y="293.49" width="72.81" height="146.25"/><rect class="cls-2" x="294.05" y="293.49" width="73.44" height="146.25"/><rect class="cls-4" x="147.79" y="439.71" width="146.25" height="73.44"/><polygon class="cls-3" points="146.25 74.53 146.25 147.35 0 147.35 0 147.3 73.46 147.3 73.46 74.53 146.25 74.53"/><rect class="cls-3" y="74.53" width="73.46" height="72.77"/><rect class="cls-2" x="0.01" y="1.1" width="73.46" height="73.44"/><rect class="cls-1" y="73.86" width="73.46" height="73.44"/><rect class="cls-3" x="221.24" y="513.03" width="72.95" height="72.92"/><polygon class="cls-3" points="74.92 219.43 1.97 292.35 1.97 219.43 74.92 219.43"/><polygon class="cls-3" points="147.11 878.64 1.62 1024.08 1.62 878.64 147.11 878.64"/><polygon class="cls-3" points="440.42 878.36 294 1024.73 294 878.36 440.42 878.36"/><polygon class="cls-1" points="294.24 1024.54 147.83 1170.91 147.83 1024.54 294.24 1024.54"/><polygon class="cls-1" points="440.35 0.93 294.05 147.18 294.05 0.93 440.35 0.93"/><polygon class="cls-1" points="220.88 585.95 147.93 658.88 147.93 585.95 220.88 585.95"/><path class="cls-2" d="M74.34,586.18h0A72.92,72.92,0,0,1,1.41,659.1h0V586.18Z"/><path class="cls-3" d="M74.53,805.76h0A72.93,72.93,0,0,1,1.6,878.68h0V805.76Z"/><rect class="cls-4" x="221.04" y="366.75" width="72.95" height="72.92"/><path class="cls-3" d="M146.37,147A147.68,147.68,0,0,0,294,293.23v-.08h.08V147Z"/><path class="cls-1" d="M146.37,147.19A147.68,147.68,0,0,1,294,1v.08h.08V147.19Z"/><path class="cls-1" d="M293.94,732.34V878.49H146.25a142.47,142.47,0,0,1,1-15.42c.16-1.64.37-3.25.63-4.86a138,138,0,0,1,2.76-14c.4-1.63.84-3.27,1.31-4.89a144.83,144.83,0,0,1,4.77-14c.66-1.64,1.34-3.25,2-4.87a140.06,140.06,0,0,1,7.09-14c.93-1.64,1.92-3.28,2.92-4.87a137.56,137.56,0,0,1,10-14q2-2.49,4.07-4.87c2.15-2.46,4.4-4.87,6.72-7.18s4.79-4.64,7.3-6.81c1.92-1.69,3.86-3.3,5.85-4.87a146.91,146.91,0,0,1,21.41-14c3.23-1.75,6.5-3.36,9.87-4.86a147.3,147.3,0,0,1,59.93-12.71v.07Z"/><path class="cls-4" d="M293.94,858.21v4.86H147.21c.16-1.64.37-3.25.63-4.86Z"/><path class="cls-4" d="M293.94,839.32v4.89H150.6c.4-1.63.84-3.27,1.31-4.89Z"/><path class="cls-4" d="M293.94,820.46v4.87H156.68c.66-1.64,1.34-3.25,2-4.87Z"/><path class="cls-4" d="M293.94,801.6v4.87H165.81c.93-1.64,1.92-3.28,2.92-4.87Z"/><path class="cls-4" d="M293.94,782.72v4.87H178.7q2-2.49,4.07-4.87Z"/><path class="cls-4" d="M293.94,763.86v4.87H196.79c1.92-1.69,3.86-3.3,5.85-4.87Z"/><path class="cls-4" d="M293.94,745v4.86H224.05c3.23-1.75,6.5-3.36,9.87-4.86Z"/><rect class="cls-4" x="367.18" y="155.25" width="73.12" height="5.43"/><rect class="cls-4" x="367.18" y="170.46" width="73.12" height="5.43"/><rect class="cls-4" x="367.18" y="185.67" width="73.12" height="5.43"/><rect class="cls-4" x="367.18" y="200.88" width="73.12" height="5.43"/><rect class="cls-4" x="367.18" y="216.11" width="73.12" height="5.43"/><rect class="cls-4" x="367.18" y="231.32" width="73.12" height="5.43"/><rect class="cls-4" x="367.18" y="246.53" width="73.12" height="5.43"/><rect class="cls-4" x="367.18" y="261.76" width="73.12" height="5.43"/><rect class="cls-4" x="367.18" y="276.97" width="73.12" height="5.43"/><path class="cls-1" d="M440.3,439.88V586h-4.4a73.12,73.12,0,0,1,4.4-146.1Z"/><rect class="cls-1" x="1.66" y="439.87" width="146.25" height="146.25"/><path class="cls-4" d="M440.29,878.32H294.05V732.08h0A146.24,146.24,0,0,1,440.29,878.32Z"/><path class="cls-1" d="M174.73,388.74a4.94,4.94,0,1,1-4.94-4.94A4.94,4.94,0,0,1,174.73,388.74Z"/><path class="cls-1" d="M174.73,414.55a4.94,4.94,0,1,1-4.94-4.94A4.94,4.94,0,0,1,174.73,414.55Z"/><path class="cls-1" d="M199.87,388.74a4.94,4.94,0,1,1-4.94-4.94A4.94,4.94,0,0,1,199.87,388.74Z"/><path class="cls-1" d="M199.87,414.55a4.94,4.94,0,1,1-4.94-4.94A4.94,4.94,0,0,1,199.87,414.55Z"/><path class="cls-5" d="M351.48,1063.86a13,13,0,1,1-13-13A13,13,0,0,1,351.48,1063.86Z"/><path class="cls-5" d="M351.48,1131.75a13,13,0,1,1-13-13A13,13,0,0,1,351.48,1131.75Z"/><path class="cls-5" d="M417.6,1063.86a13,13,0,1,1-13-13A13,13,0,0,1,417.6,1063.86Z"/><path class="cls-5" d="M417.6,1131.75a13,13,0,1,1-13-13A13,13,0,0,1,417.6,1131.75Z"/></svg>