<svg id="Layer_1" data-name="Layer 1" xmlns="http://www.w3.org/2000/svg" viewBox="0 0 1200 1200"><defs><style>.cls-1{fill:#00517c;}.cls-2{fill:#68c4d1;}.cls-3{fill:#ffd156;}.cls-4{fill:#ffeea9;}</style></defs><path class="cls-1" d="M203.18,568.3a9.78,9.78,0,1,1-9.78-9.77A9.78,9.78,0,0,1,203.18,568.3Z"/><path class="cls-1" d="M203.18,619.38a9.78,9.78,0,1,1-9.78-9.77A9.78,9.78,0,0,1,203.18,619.38Z"/><path class="cls-1" d="M252.93,568.3a9.78,9.78,0,1,1-9.78-9.77A9.78,9.78,0,0,1,252.93,568.3Z"/><path class="cls-1" d="M252.93,619.38a9.78,9.78,0,1,1-9.78-9.77A9.78,9.78,0,0,1,252.93,619.38Z"/><path class="cls-1" d="M404.39,568.3a9.78,9.78,0,1,1-9.77-9.77A9.77,9.77,0,0,1,404.39,568.3Z"/><path class="cls-1" d="M404.39,619.38a9.78,9.78,0,1,1-9.77-9.77A9.77,9.77,0,0,1,404.39,619.38Z"/><path class="cls-1" d="M454.14,568.3a9.78,9.78,0,1,1-9.77-9.77A9.77,9.77,0,0,1,454.14,568.3Z"/><path class="cls-1" d="M454.14,619.38a9.78,9.78,0,1,1-9.77-9.77A9.77,9.77,0,0,1,454.14,619.38Z"/><path class="cls-1" d="M303.69,568.3a9.78,9.78,0,1,1-9.77-9.77A9.77,9.77,0,0,1,303.69,568.3Z"/><path class="cls-1" d="M303.69,619.38a9.78,9.78,0,1,1-9.77-9.77A9.77,9.77,0,0,1,303.69,619.38Z"/><path class="cls-1" d="M353.44,568.3a9.78,9.78,0,1,1-9.78-9.77A9.78,9.78,0,0,1,353.44,568.3Z"/><path class="cls-1" d="M353.44,619.38a9.78,9.78,0,1,1-9.78-9.77A9.78,9.78,0,0,1,353.44,619.38Z"/><rect class="cls-2" x="165.32" y="662.86" width="289.44" height="289.44" transform="translate(1117.62 497.54) rotate(90)"/><path class="cls-2" d="M744.21,662.86H454.77V952.3h0C614.62,952.3,744.21,822.71,744.21,662.86Z"/><polygon class="cls-3" points="456.02 373.87 743.96 661.73 743.96 373.87 456.02 373.87"/><polygon class="cls-1" points="164.82 662.63 454.59 952.31 454.59 662.63 164.82 662.63"/><rect class="cls-4" x="311.84" y="230.32" width="144.37" height="144.33"/><rect class="cls-4" x="891.79" y="807.63" width="144.37" height="144.33"/><path class="cls-1" d="M790.1,299.5a9.78,9.78,0,1,1-9.78-9.78A9.78,9.78,0,0,1,790.1,299.5Z"/><path class="cls-1" d="M790.1,350.58a9.78,9.78,0,1,1-9.78-9.78A9.78,9.78,0,0,1,790.1,350.58Z"/><path class="cls-1" d="M839.85,299.5a9.78,9.78,0,1,1-9.78-9.78A9.78,9.78,0,0,1,839.85,299.5Z"/><path class="cls-1" d="M839.85,350.58a9.78,9.78,0,1,1-9.78-9.78A9.78,9.78,0,0,1,839.85,350.58Z"/></svg>