<svg xmlns="http://www.w3.org/2000/svg" xmlns:xlink="http://www.w3.org/1999/xlink" viewBox="0 0 1200 1200"><defs><style>.cls-1{isolation:isolate;}.cls-2,.cls-3{mix-blend-mode:color-dodge;}.cls-2{fill:url(#linear-gradient);}.cls-3{fill:url(#linear-gradient-2);}.cls-4,.cls-5,.cls-6{mix-blend-mode:overlay;}.cls-4{fill:url(#radial-gradient);}.cls-5{fill:url(#radial-gradient-2);}.cls-6{fill:url(#radial-gradient-3);}</style><linearGradient id="linear-gradient" x1="618.18" y1="343.81" x2="406.98" y2="709.62" gradientTransform="translate(1631.88 818) rotate(180)" gradientUnits="userSpaceOnUse"><stop offset="0" stop-color="#094779"/><stop offset="0.06" stop-color="#08406d" stop-opacity="0.85"/><stop offset="0.19" stop-color="#073153" stop-opacity="0.55"/><stop offset="0.32" stop-color="#06253f" stop-opacity="0.31"/><stop offset="0.46" stop-color="#051d31" stop-opacity="0.14"/><stop offset="0.59" stop-color="#041828" stop-opacity="0.03"/><stop offset="0.71" stop-color="#041625" stop-opacity="0"/></linearGradient><linearGradient id="linear-gradient-2" x1="-261.43" y1="1242.3" x2="-28.14" y2="964.27" gradientTransform="translate(1434.75 -812.23)" xlink:href="#linear-gradient"/><radialGradient id="radial-gradient" cx="788.89" cy="335.57" r="77.32" gradientUnits="userSpaceOnUse"><stop offset="0" stop-color="#041625" stop-opacity="0"/><stop offset="0.16" stop-color="#061e2d" stop-opacity="0.02"/><stop offset="0.35" stop-color="#0a3744" stop-opacity="0.07"/><stop offset="0.54" stop-color="#125f6a" stop-opacity="0.16"/><stop offset="0.74" stop-color="#1d98a0" stop-opacity="0.29"/><stop offset="0.95" stop-color="#2be0e4" stop-opacity="0.45"/><stop offset="1" stop-color="#2ff5f7" stop-opacity="0.5"/></radialGradient><radialGradient id="radial-gradient-2" cx="1242.65" cy="611.26" r="87.47" xlink:href="#radial-gradient"/><radialGradient id="radial-gradient-3" cx="642.84" cy="277" r="153.07" xlink:href="#radial-gradient"/></defs><g class="cls-1"><g id="Layer_1" data-name="Layer 1"><path class="cls-2" d="M723.62,290.31h0a158,158,0,0,0,223.51,0h0a23.79,23.79,0,0,1,33.66,0h0a23.81,23.81,0,0,1,0,33.66h0a51.65,51.65,0,0,0,0,73.06l133.4,133.4a44.85,44.85,0,0,0,63.42,0h0a44.84,44.84,0,0,1,63.41,0h0a159.89,159.89,0,0,0,226.12,0l38.71-38.72a70.52,70.52,0,0,0,0-99.73L1404,290.08a70.52,70.52,0,0,0-99.73,0h0a19.18,19.18,0,0,1-27.11,0h0a19.18,19.18,0,0,1,0-27.11h0a56.28,56.28,0,0,0,0-79.61l-97.53-97.54a90.93,90.93,0,0,0-128.59,0h0a90.91,90.91,0,0,1-128.58,0h0a123.08,123.08,0,0,0-174.07,0l-24.72,24.72A127.12,127.12,0,0,0,723.62,290.31Z"/><path class="cls-3" d="M1595.35,311.05h0a127.28,127.28,0,0,0-180,0h0a19.16,19.16,0,0,1-27.11,0h0a19.16,19.16,0,0,1,0-27.11h0a41.59,41.59,0,0,0,0-58.83L1280.82,117.68a36.12,36.12,0,0,0-51.07,0h0a36.12,36.12,0,0,1-51.07,0h0a128.76,128.76,0,0,0-182.09,0l-31.18,31.18a56.78,56.78,0,0,0,0,80.31l82.06,82.07a56.79,56.79,0,0,0,80.32,0h0a15.43,15.43,0,0,1,21.83,0h0a15.44,15.44,0,0,1,0,21.82h0a45.33,45.33,0,0,0,0,64.12l78.54,78.55a73.23,73.23,0,0,0,103.55,0h0a73.21,73.21,0,0,1,103.55,0h0a99.12,99.12,0,0,0,140.18,0l19.91-19.91A102.36,102.36,0,0,0,1595.35,311.05Z"/><circle class="cls-4" cx="788.89" cy="335.57" r="77.32"/><circle class="cls-5" cx="1242.65" cy="611.26" r="87.47"/><circle class="cls-6" cx="642.84" cy="277" r="153.07"/></g></g></svg>