<svg xmlns="http://www.w3.org/2000/svg" xmlns:xlink="http://www.w3.org/1999/xlink" viewBox="0 0 1200 1200"><defs><style>.cls-1{isolation:isolate;}.cls-2,.cls-3{mix-blend-mode:color-dodge;}.cls-2{fill:url(#linear-gradient);}.cls-3{fill:url(#linear-gradient-2);}.cls-4{mix-blend-mode:overlay;fill:url(#radial-gradient);}</style><linearGradient id="linear-gradient" x1="683.84" y1="512.4" x2="415.96" y2="976.39" gradientUnits="userSpaceOnUse"><stop offset="0" stop-color="#094779"/><stop offset="0.06" stop-color="#08406d" stop-opacity="0.85"/><stop offset="0.19" stop-color="#073153" stop-opacity="0.55"/><stop offset="0.32" stop-color="#06253f" stop-opacity="0.31"/><stop offset="0.46" stop-color="#051d31" stop-opacity="0.14"/><stop offset="0.59" stop-color="#041828" stop-opacity="0.03"/><stop offset="0.71" stop-color="#041625" stop-opacity="0"/></linearGradient><linearGradient id="linear-gradient-2" x1="208.66" y1="779.27" x2="323.49" y2="580.37" gradientTransform="translate(666.88 1520.49) rotate(180)" xlink:href="#linear-gradient"/><radialGradient id="radial-gradient" cx="931.87" cy="947.17" r="148.56" gradientUnits="userSpaceOnUse"><stop offset="0" stop-color="#041625" stop-opacity="0"/><stop offset="0.16" stop-color="#061e2d" stop-opacity="0.02"/><stop offset="0.35" stop-color="#0a3744" stop-opacity="0.07"/><stop offset="0.54" stop-color="#125f6a" stop-opacity="0.16"/><stop offset="0.74" stop-color="#1d98a0" stop-opacity="0.29"/><stop offset="0.95" stop-color="#2be0e4" stop-opacity="0.45"/><stop offset="1" stop-color="#2ff5f7" stop-opacity="0.5"/></radialGradient></defs><g class="cls-1"><g id="Layer_1" data-name="Layer 1"><path class="cls-2" d="M1051.78,745.63h0c-78.29-78.28-205.21-78.28-283.5,0h0a30.2,30.2,0,0,1-42.7,0h0a30.18,30.18,0,0,1,0-42.69h0a65.53,65.53,0,0,0,0-92.67l-169.2-169.2a56.87,56.87,0,0,0-80.44,0h0a56.88,56.88,0,0,1-80.44,0h0c-79.2-79.2-207.61-79.2-286.8,0l-49.11,49.1a89.45,89.45,0,0,0,0,126.5L188.85,745.93a89.45,89.45,0,0,0,126.5,0h0a24.31,24.31,0,0,1,34.37,0h0a24.29,24.29,0,0,1,0,34.37h0a71.42,71.42,0,0,0,0,101L473.44,1005a115.33,115.33,0,0,0,163.1,0h0a115.33,115.33,0,0,1,163.09,0h0a156.12,156.12,0,0,0,220.79,0l31.36-31.35A161.25,161.25,0,0,0,1051.78,745.63Z"/><path class="cls-3" d="M67.9,721.51l50,50a34.6,34.6,0,0,0,48.93,0,9.41,9.41,0,0,1,13.3,0h0a9.4,9.4,0,0,1,0,13.29h0a27.61,27.61,0,0,0,0,39.06L228,871.72a44.61,44.61,0,0,0,63.09,0h0A44.53,44.53,0,0,1,332,859.66,62.25,62.25,0,0,0,349.94,910h0a77.54,77.54,0,0,0,109.66,0h0a11.67,11.67,0,0,1,16.51,0h0a11.68,11.68,0,0,1,0,16.52h0a25.34,25.34,0,0,0,0,35.84l65.45,65.45a22,22,0,0,0,31.11,0h0a22,22,0,0,1,31.11,0h0a78.46,78.46,0,0,0,110.94,0l19-19a34.6,34.6,0,0,0,0-48.93l-50-50a34.6,34.6,0,0,0-48.93,0h0a9.41,9.41,0,0,1-13.3,0h0a9.41,9.41,0,0,1,0-13.3,27.61,27.61,0,0,0,0-39.06l-47.85-47.85a44.61,44.61,0,0,0-63.09,0h0a44.58,44.58,0,0,1-40.93,12.06,62.24,62.24,0,0,0-17.95-50.3h0a77.54,77.54,0,0,0-109.66,0h0a11.67,11.67,0,0,1-16.51,0h0a11.67,11.67,0,0,1,0-16.51h0a25.34,25.34,0,0,0,0-35.84l-65.45-65.45a22,22,0,0,0-31.11,0h0a22,22,0,0,1-31.11,0h0a78.46,78.46,0,0,0-110.94,0l-19,19A34.6,34.6,0,0,0,67.9,721.51Z"/><circle class="cls-4" cx="931.87" cy="947.17" r="148.56"/></g></g></svg>